<svg xmlns="http://www.w3.org/2000/svg" width="1200" height="630" viewBox="0 0 1200 630">
  <defs>
    <radialGradient id="g" cx="82%" cy="6%" r="85%">
      <stop offset="0%" stop-color="#33564a" stop-opacity="0.10"/>
      <stop offset="60%" stop-color="#eff0ec" stop-opacity="0"/>
    </radialGradient>
  </defs>
  <rect width="1200" height="630" fill="#eff0ec"/>
  <rect width="1200" height="630" fill="url(#g)"/>
  <rect x="40.5" y="40.5" width="1119" height="549" rx="8" fill="none" stroke="#e0e2dd" stroke-width="1"/>
  <path d="M600 150c-39 0-72.5 12-72.5 12l10.5 21.5s22-8 35.5-9.5l4 12c-18 2-35 8-35 8L600 330l57.5-134s-17-6-35-8l4-12c13.5 1.5 35.5 9.5 35.5 9.5L672.5 162S639 150 600 150z" fill="#c13b33"/>
  <text x="600" y="420" font-family="Corbel, Candara, Calibri, 'Segoe UI', sans-serif" font-size="64" font-weight="700" fill="#1c1f1c" text-anchor="middle" letter-spacing="-1">Tesla Rabatkode</text>
  <text x="600" y="478" font-family="Corbel, Candara, Calibri, 'Segoe UI', sans-serif" font-size="30" fill="#6a6f69" text-anchor="middle">Spar penge på din nye Tesla — brug min henvisningskode</text>
</svg>
